# xmcd CD database file
#
# Track frame offsets:
#	150
#	8571
#	31147
#	65814
#	86007
#	99723
#	112098
#	128922
#	144086
#	150800
#	167119
#	190981
#	217020
#	242820
#
# Disc length: 3796 seconds
#
# Revision: 3
# Processed by: cddbd v1.5.2PL0 Copyright (c) Steve Scherf et al.
# Submitted via: CDex 1.70beta2
#
DISCID=ba0ed20e
DTITLE=Andreas Vollenweider - White Winds
DYEAR=1984
DGENRE=New Age
TTITLE0=The White Winds
TTITLE1=Hall Of The Stars
TTITLE2=The Glass Hall (Choose The Crystal)
TTITLE3=The Woman And The Stone 
TTITLE4=The Stone (Close Up)
TTITLE5=Phases Of The Three Moons
TTITLE6=Flight Feet and Root Hands
TTITLE7=Brothership
TTITLE8=Sisterseed
TTITLE9=Trilogy (At The White Magic Gardens)
TTITLE10=Pace Verde
TTITLE11=Flight Feet and Root Hands - Mother Of Peace (Live)
TTITLE12=Hey You! Yes, You ...
TTITLE13=Introducing VOX (Data)
EXTD=YEAR: 1984
EXTT0=
EXTT1=
EXTT2=
EXTT3=
EXTT4=
EXTT5=
EXTT6=
EXTT7=
EXTT8=
EXTT9=
EXTT10=
EXTT11=
EXTT12=
EXTT13=
PLAYORDER=
